<svg width="128" height="128" viewBox="0 0 128 128" xmlns="http://www.w3.org/2000/svg"><title>Group 3</title><g fill="none" fill-rule="evenodd"><circle fill="#5E7D8D" cx="61" cy="61.829" r="61"/><path d="M13.645 79.487h95.513v1.532c0 .846-.687 1.532-1.54 1.532H15.185c-.85 0-1.54-.68-1.54-1.532v-1.532z" fill="#D8D8D8"/><path fill="#D8D8D8" d="M21.347 32.132h80.108v49.033H21.347z"/><path fill="#FFF" d="M24.558 35.342H97.99v43.926H24.558z"/><path d="M47.33 61.642l4.505-4.447-4.505-4.447 1.371-1.353 5.876 5.8-5.876 5.8-1.37-1.353zm-5.092 0l-4.504-4.447 4.504-4.447-1.37-1.353-5.876 5.8 5.876 5.8 1.37-1.353z" fill="#00BCD8"/><path fill="#0097A9" d="M24.558 35.342H97.99v3.065H24.558z"/><path fill="#5E7D8D" d="M65.492 50.592h26.703v2.554H65.492z"/><path fill="#D8D8D8" d="M65.492 55.408h20.54v1.022h-20.54zM65.492 58.619h20.54v1.022h-20.54zM65.492 61.829h20.54v1.022h-20.54z"/></g></svg>