<svg width="128" height="128" viewBox="0 0 128 128" xmlns="http://www.w3.org/2000/svg"><title>Group 4</title><g fill="none" fill-rule="evenodd"><circle fill="#0097A9" cx="61" cy="61" r="61"/><path d="M13.645 85.079h95.513v1.532c0 .847-.687 1.533-1.54 1.533H15.185c-.85 0-1.54-.68-1.54-1.533V85.08z" fill="#D8D8D8"/><path fill="#D8D8D8" d="M21.347 37.724h80.108v49.033H21.347z"/><path fill="#FFF" d="M24.558 40.935H97.99V84.86H24.558z"/><path d="M77.83 67.234l4.505-4.447-4.505-4.447 1.371-1.353 5.876 5.8-5.876 5.8-1.37-1.353zm-5.092 0l-4.504-4.447 4.504-4.447-1.37-1.353-5.876 5.8 5.876 5.8 1.37-1.353z" fill="#00BCD8"/><path fill="#0097A9" d="M24.558 40.935H97.99V44H24.558z"/><path d="M37.724 72.237h16.855v-2.545H37.724v2.545zm4.815-5.09h7.224v-7.282h4.816l-8.428-8.497-8.427 8.497h4.815v7.282z" fill="#5E7D8D"/></g></svg>