<svg width="128" height="128" viewBox="0 0 128 128" xmlns="http://www.w3.org/2000/svg"><title>Group 6</title><g fill="none" fill-rule="evenodd"><circle fill="#D8D8D8" cx="61" cy="61" r="61"/><path fill="#0097A9" d="M47.43 61.803L68.872 74.18l-16.128 27.935-8.672-10.035-12.768-2.344z"/><path fill="#0097A9" d="M73.611 61.803L52.171 74.18 68.3 102.116l8.672-10.035 12.769-2.344z"/><path stroke="#D8D8D8" stroke-width="2.048" fill="#0097A9" d="M61.401 78.588l-9.158 3.569-5.774-7.954-9.635-1.949-.557-9.813-7.051-6.848 4.836-8.557-2.23-9.573 8.695-4.583 3.3-9.26 9.793.845 7.781-6.004 7.782 6.004 9.793-.844 3.3 9.259 8.694 4.583-2.23 9.573 4.837 8.557-7.051 6.848-.558 9.813-9.634 1.949-5.775 7.954z"/><circle stroke="#D8D8D8" stroke-width="2.048" cx="61" cy="50.566" r="19.263"/><path fill="#00C0A5" d="M61 57.161L53.56 61l1.42-8.131-6.02-5.759 8.32-1.186L61 38.526l3.72 7.398 8.32 1.186-6.02 5.759L68.44 61z"/></g></svg>