<svg width="128" height="128" viewBox="0 0 128 128" xmlns="http://www.w3.org/2000/svg" xmlns:xlink="http://www.w3.org/1999/xlink"><title>Group 5</title><defs><path d="M33.71 20.868h53.808c.426 0 .771.338.771.775v74.18a.775.775 0 0 1-.771.774H33.71V20.868z" id="b"/><filter x="-11%" y="-2.6%" width="122%" height="115.8%" filterUnits="objectBoundingBox" id="a"><feOffset dy="2" in="SourceAlpha" result="shadowOffsetOuter1"/><feGaussianBlur stdDeviation="1" in="shadowOffsetOuter1" result="shadowBlurOuter1"/><feColorMatrix values="0 0 0 0 0 0 0 0 0 0 0 0 0 0 0 0 0 0 0.16 0" in="shadowBlurOuter1" result="shadowMatrixOuter1"/><feOffset dy="2" in="SourceAlpha" result="shadowOffsetOuter2"/><feGaussianBlur stdDeviation="1" in="shadowOffsetOuter2" result="shadowBlurOuter2"/><feColorMatrix values="0 0 0 0 0 0 0 0 0 0 0 0 0 0 0 0 0 0 0.23 0" in="shadowBlurOuter2" result="shadowMatrixOuter2"/><feMerge><feMergeNode in="shadowMatrixOuter1"/><feMergeNode in="shadowMatrixOuter2"/></feMerge></filter></defs><g fill="none" fill-rule="evenodd"><circle fill="#00C0A5" cx="61" cy="61" r="61"/><use fill="#000" filter="url(#a)" xlink:href="#b"/><use fill="#0097A9" xlink:href="#b"/><path fill="#00BCD8" d="M33.711 20.868h10.298v75.728H33.711z"/><path fill="#FFF" d="M35.255 90.457h53.034v3.582H35.255z"/><path fill-opacity=".5" fill="#9B9B9B" d="M35.255 90.457h53.034v1H35.255z"/><path fill="#D8D8D8" d="M38.345 91.992h10.812v10.745l-5.406-3.582-5.406 3.582z"/><path d="M67.037 56.788l4.836-4.707-4.836-4.708 1.472-1.432 6.307 6.14-6.307 6.14-1.472-1.433zm-5.466 0l-4.836-4.707 4.836-4.708-1.472-1.432-6.308 6.14 6.308 6.14 1.472-1.433z" fill="#FFF"/><path d="M67.037 56.788l4.836-4.707-4.836-4.708 1.472-1.432 6.307 6.14-6.307 6.14-1.472-1.433zm-5.466 0l-4.836-4.707 4.836-4.708-1.472-1.432-6.308 6.14 6.308 6.14 1.472-1.433z" fill="#FFF"/></g></svg>